# MagicaVoxel @ Ephtracy

# group
o 

# material
mtllib wiewiorka.mtl
usemtl palette

# normals
vn -1 0 0
vn 1 0 0
vn 0 0 1
vn 0 0 -1
vn 0 -1 0
vn 0 1 0

# texcoords
vt 0.115234 0.5
vt 0.146484 0.5
vt 0.310547 0.5
vt 0.873047 0.5

# verts
v 0.6 1 -0.4
v 0.6 1 -0.7
v 0.6 1.1 -0.4
v 0.6 1.1 -0.6
v 0.6 1.2 -0.6
v 0.6 1.2 -0.7
v 0.7 1.1 -0.5
v 0.7 1.1 -0.6
v 0.7 1.1 -0.7
v 0.7 1.1 -0.8
v 0.7 1.2 -0.6
v 0.7 1.2 -0.7
v 0.7 1.3 -0.1
v 0.7 1.3 -0.3
v 0.7 1.4 -0.1
v 0.7 1.4 -0.3
v 0.7 1.5 -0.1
v 0.7 1.5 -0.4
v 0.7 1.6 -0.5
v 0.7 1.6 -0.8
v 0.7 1.7 -0.2
v 0.7 1.7 -0.3
v 0.7 1.8 -0.2
v 0.7 1.8 -0.3
v 0.7 1.9 -0.1
v 0.7 1.9 -0.3
v 0.7 1.9 -0.4
v 0.7 2.1 -0.3
v 0.7 2.1 -0.4
v 0.8 1.2 -0.3
v 0.8 1.2 -0.5
v 0.8 1.3 -0.3
v 0.8 1.3 -0.8
v 0.8 1.3 -1
v 0.8 1.4 -0.2
v 0.8 1.4 -0.3
v 0.8 1.4 -0.5
v 0.8 1.4 -0.8
v 0.8 1.4 -0.9
v 0.8 1.5 -0.2
v 0.8 1.5 -0.3
v 0.8 1.6 0
v 0.8 1.6 -0.1
v 0.8 1.6 -1
v 0.8 1.6 -1.1
v 0.8 1.7 -0.9
v 0.8 1.7 -1.1
v 0.8 1.8 0
v 0.8 1.8 -0.1
v 1 1.3 -0.1
v 1 1.3 -0.2
v 1 1.4 -0.1
v 1 1.4 -0.2
v 1 1.9 -0.3
v 1 1.9 -0.4
v 1 2.1 -0.3
v 1 2.1 -0.4
v 1.1 1 -0.4
v 1.1 1 -0.7
v 1.1 1.1 -0.4
v 1.1 1.1 -0.5
v 1.1 1.1 -0.6
v 1.1 1.1 -0.7
v 0.7 1 -0.4
v 0.7 1 -0.7
v 0.7 1.1 -0.4
v 0.7 1.1 -0.5
v 0.7 1.1 -0.6
v 0.7 1.1 -0.7
v 0.8 1.3 -0.1
v 0.8 1.3 -0.2
v 0.8 1.4 -0.1
v 0.8 1.4 -0.2
v 0.8 1.9 -0.3
v 0.8 1.9 -0.4
v 0.8 2.1 -0.3
v 0.8 2.1 -0.4
v 1 1.2 -0.3
v 1 1.2 -0.5
v 1 1.3 -0.3
v 1 1.3 -0.8
v 1 1.3 -1
v 1 1.4 -0.2
v 1 1.4 -0.3
v 1 1.4 -0.5
v 1 1.4 -0.8
v 1 1.4 -0.9
v 1 1.5 -0.2
v 1 1.5 -0.3
v 1 1.6 0
v 1 1.6 -0.1
v 1 1.6 -1
v 1 1.6 -1.1
v 1 1.7 -0.9
v 1 1.7 -1.1
v 1 1.8 0
v 1 1.8 -0.1
v 1.1 1.1 -0.5
v 1.1 1.1 -0.6
v 1.1 1.1 -0.7
v 1.1 1.1 -0.8
v 1.1 1.2 -0.6
v 1.1 1.2 -0.7
v 1.1 1.3 -0.1
v 1.1 1.3 -0.3
v 1.1 1.4 -0.1
v 1.1 1.4 -0.3
v 1.1 1.5 -0.1
v 1.1 1.5 -0.4
v 1.1 1.6 -0.5
v 1.1 1.6 -0.8
v 1.1 1.7 -0.2
v 1.1 1.7 -0.3
v 1.1 1.8 -0.2
v 1.1 1.8 -0.3
v 1.1 1.9 -0.1
v 1.1 1.9 -0.3
v 1.1 1.9 -0.4
v 1.1 2.1 -0.3
v 1.1 2.1 -0.4
v 1.2 1 -0.4
v 1.2 1 -0.7
v 1.2 1.1 -0.4
v 1.2 1.1 -0.6
v 1.2 1.2 -0.6
v 1.2 1.2 -0.7
v 0.8 1.6 0
v 0.8 1.8 0
v 1 1.6 0
v 1 1.8 0
v 0.7 1.3 -0.1
v 0.7 1.4 -0.1
v 0.7 1.5 -0.1
v 0.7 1.9 -0.1
v 0.8 1.3 -0.1
v 0.8 1.4 -0.1
v 0.8 1.6 -0.1
v 0.8 1.8 -0.1
v 1 1.3 -0.1
v 1 1.4 -0.1
v 1 1.6 -0.1
v 1 1.8 -0.1
v 1.1 1.3 -0.1
v 1.1 1.4 -0.1
v 1.1 1.5 -0.1
v 1.1 1.9 -0.1
v 0.8 1.3 -0.2
v 0.8 1.4 -0.2
v 0.8 1.5 -0.2
v 1 1.3 -0.2
v 1 1.4 -0.2
v 1 1.5 -0.2
v 0.7 1.9 -0.3
v 0.7 2.1 -0.3
v 0.8 1.2 -0.3
v 0.8 1.3 -0.3
v 0.8 1.9 -0.3
v 0.8 2.1 -0.3
v 1 1.2 -0.3
v 1 1.3 -0.3
v 1 1.9 -0.3
v 1 2.1 -0.3
v 1.1 1.9 -0.3
v 1.1 2.1 -0.3
v 0.6 1 -0.4
v 0.6 1.1 -0.4
v 0.7 1 -0.4
v 0.7 1.1 -0.4
v 1.1 1 -0.4
v 1.1 1.1 -0.4
v 1.2 1 -0.4
v 1.2 1.1 -0.4
v 0.7 1.1 -0.5
v 0.7 1.6 -0.5
v 0.8 1.2 -0.5
v 0.8 1.4 -0.5
v 1 1.2 -0.5
v 1 1.4 -0.5
v 1.1 1.1 -0.5
v 1.1 1.6 -0.5
v 0.6 1.1 -0.6
v 0.6 1.2 -0.6
v 0.7 1.1 -0.6
v 0.7 1.2 -0.6
v 1.1 1.1 -0.6
v 1.1 1.2 -0.6
v 1.2 1.1 -0.6
v 1.2 1.2 -0.6
v 0.8 1.4 -0.9
v 0.8 1.7 -0.9
v 1 1.4 -0.9
v 1 1.7 -0.9
v 0.7 1.3 -0.3
v 0.7 1.4 -0.3
v 0.8 1.3 -0.3
v 0.8 1.4 -0.3
v 0.8 1.5 -0.3
v 1 1.3 -0.3
v 1 1.4 -0.3
v 1 1.5 -0.3
v 1.1 1.3 -0.3
v 1.1 1.4 -0.3
v 0.7 1.5 -0.4
v 0.7 1.9 -0.4
v 0.7 2.1 -0.4
v 0.8 1.5 -0.4
v 0.8 1.8 -0.4
v 0.8 1.9 -0.4
v 0.8 2.1 -0.4
v 1 1.5 -0.4
v 1 1.8 -0.4
v 1 1.9 -0.4
v 1 2.1 -0.4
v 1.1 1.5 -0.4
v 1.1 1.9 -0.4
v 1.1 2.1 -0.4
v 0.6 1 -0.7
v 0.6 1.2 -0.7
v 0.7 1 -0.7
v 0.7 1.1 -0.7
v 0.7 1.2 -0.7
v 1.1 1 -0.7
v 1.1 1.1 -0.7
v 1.1 1.2 -0.7
v 1.2 1 -0.7
v 1.2 1.2 -0.7
v 0.7 1.1 -0.8
v 0.7 1.6 -0.8
v 0.8 1.3 -0.8
v 0.8 1.4 -0.8
v 1 1.3 -0.8
v 1 1.4 -0.8
v 1.1 1.1 -0.8
v 1.1 1.6 -0.8
v 0.8 1.3 -1
v 0.8 1.6 -1
v 1 1.3 -1
v 1 1.6 -1
v 0.8 1.6 -1.1
v 0.8 1.7 -1.1
v 1 1.6 -1.1
v 1 1.7 -1.1
v 0.6 1 -0.4
v 0.7 1 -0.4
v 1.1 1 -0.4
v 1.2 1 -0.4
v 0.6 1 -0.7
v 0.7 1 -0.7
v 1.1 1 -0.7
v 1.2 1 -0.7
v 0.7 1.1 -0.5
v 1.1 1.1 -0.5
v 0.7 1.1 -0.6
v 1.1 1.1 -0.6
v 0.7 1.1 -0.7
v 1.1 1.1 -0.7
v 0.7 1.1 -0.8
v 1.1 1.1 -0.8
v 0.8 1.2 -0.3
v 1 1.2 -0.3
v 0.8 1.2 -0.5
v 1 1.2 -0.5
v 0.7 1.3 -0.1
v 0.8 1.3 -0.1
v 1 1.3 -0.1
v 1.1 1.3 -0.1
v 0.8 1.3 -0.2
v 1 1.3 -0.2
v 0.7 1.3 -0.3
v 0.8 1.3 -0.3
v 1 1.3 -0.3
v 1.1 1.3 -0.3
v 0.8 1.3 -0.8
v 1 1.3 -0.8
v 0.8 1.3 -1
v 1 1.3 -1
v 0.7 1.5 -0.1
v 1.1 1.5 -0.1
v 0.8 1.5 -0.2
v 1 1.5 -0.2
v 0.8 1.5 -0.3
v 1 1.5 -0.3
v 0.7 1.5 -0.4
v 0.8 1.5 -0.4
v 1 1.5 -0.4
v 1.1 1.5 -0.4
v 0.8 1.6 0
v 1 1.6 0
v 0.8 1.6 -0.1
v 1 1.6 -0.1
v 0.8 1.6 -1
v 1 1.6 -1
v 0.8 1.6 -1.1
v 1 1.6 -1.1
v 0.6 1.1 -0.4
v 0.7 1.1 -0.4
v 1.1 1.1 -0.4
v 1.2 1.1 -0.4
v 0.7 1.1 -0.5
v 1.1 1.1 -0.5
v 0.6 1.1 -0.6
v 0.7 1.1 -0.6
v 1.1 1.1 -0.6
v 1.2 1.1 -0.6
v 0.6 1.2 -0.6
v 0.7 1.2 -0.6
v 1.1 1.2 -0.6
v 1.2 1.2 -0.6
v 0.6 1.2 -0.7
v 0.7 1.2 -0.7
v 1.1 1.2 -0.7
v 1.2 1.2 -0.7
v 0.7 1.4 -0.1
v 0.8 1.4 -0.1
v 1 1.4 -0.1
v 1.1 1.4 -0.1
v 0.8 1.4 -0.2
v 1 1.4 -0.2
v 0.7 1.4 -0.3
v 0.8 1.4 -0.3
v 1 1.4 -0.3
v 1.1 1.4 -0.3
v 0.8 1.4 -0.5
v 1 1.4 -0.5
v 0.8 1.4 -0.8
v 1 1.4 -0.8
v 0.8 1.4 -0.9
v 1 1.4 -0.9
v 0.7 1.6 -0.5
v 1.1 1.6 -0.5
v 0.7 1.6 -0.8
v 1.1 1.6 -0.8
v 0.8 1.7 -0.9
v 1 1.7 -0.9
v 0.8 1.7 -1.1
v 1 1.7 -1.1
v 0.8 1.8 0
v 1 1.8 0
v 0.8 1.8 -0.1
v 1 1.8 -0.1
v 0.7 1.9 -0.1
v 1.1 1.9 -0.1
v 0.7 1.9 -0.3
v 0.8 1.9 -0.3
v 1 1.9 -0.3
v 1.1 1.9 -0.3
v 0.8 1.9 -0.4
v 1 1.9 -0.4
v 0.7 2.1 -0.3
v 0.8 2.1 -0.3
v 1 2.1 -0.3
v 1.1 2.1 -0.3
v 0.7 2.1 -0.4
v 0.8 2.1 -0.4
v 1 2.1 -0.4
v 1.1 2.1 -0.4

# faces
f 3/4/1 2/4/1 1/4/1
f 4/4/1 2/4/1 3/4/1
f 5/4/1 2/4/1 4/4/1
f 6/4/1 2/4/1 5/4/1
f 11/1/1 8/1/1 7/1/1
f 12/1/1 10/1/1 9/1/1
f 15/4/1 14/4/1 13/4/1
f 16/4/1 14/4/1 15/4/1
f 19/1/1 11/1/1 7/1/1
f 19/1/1 12/1/1 11/1/1
f 20/1/1 10/1/1 12/1/1
f 20/1/1 12/1/1 19/1/1
f 21/1/1 18/1/1 17/1/1
f 22/1/1 18/1/1 21/1/1
f 23/1/1 21/1/1 17/1/1
f 23/3/1 22/3/1 21/3/1
f 24/1/1 18/1/1 22/1/1
f 24/3/1 22/3/1 23/3/1
f 25/1/1 23/1/1 17/1/1
f 25/1/1 24/1/1 23/1/1
f 26/1/1 18/1/1 24/1/1
f 26/1/1 24/1/1 25/1/1
f 27/1/1 18/1/1 26/1/1
f 28/4/1 27/4/1 26/4/1
f 29/4/1 27/4/1 28/4/1
f 32/1/1 31/1/1 30/1/1
f 36/1/1 31/1/1 32/1/1
f 37/1/1 31/1/1 36/1/1
f 38/4/1 34/4/1 33/4/1
f 39/4/1 34/4/1 38/4/1
f 40/1/1 36/1/1 35/1/1
f 41/1/1 36/1/1 40/1/1
f 44/4/1 34/4/1 39/4/1
f 46/4/1 44/4/1 39/4/1
f 46/4/1 45/4/1 44/4/1
f 47/4/1 45/4/1 46/4/1
f 48/1/1 43/1/1 42/1/1
f 49/1/1 43/1/1 48/1/1
f 52/4/1 51/4/1 50/4/1
f 53/4/1 51/4/1 52/4/1
f 56/4/1 55/4/1 54/4/1
f 57/4/1 55/4/1 56/4/1
f 60/4/1 59/4/1 58/4/1
f 61/4/1 59/4/1 60/4/1
f 62/4/1 59/4/1 61/4/1
f 63/4/1 59/4/1 62/4/1
f 64/4/2 65/4/2 66/4/2
f 66/4/2 65/4/2 67/4/2
f 67/4/2 65/4/2 68/4/2
f 68/4/2 65/4/2 69/4/2
f 70/4/2 71/4/2 72/4/2
f 72/4/2 71/4/2 73/4/2
f 74/4/2 75/4/2 76/4/2
f 76/4/2 75/4/2 77/4/2
f 78/1/2 79/1/2 80/1/2
f 80/1/2 79/1/2 84/1/2
f 84/1/2 79/1/2 85/1/2
f 81/4/2 82/4/2 86/4/2
f 86/4/2 82/4/2 87/4/2
f 83/1/2 84/1/2 88/1/2
f 88/1/2 84/1/2 89/1/2
f 87/4/2 82/4/2 92/4/2
f 87/4/2 92/4/2 94/4/2
f 92/4/2 93/4/2 94/4/2
f 94/4/2 93/4/2 95/4/2
f 90/1/2 91/1/2 96/1/2
f 96/1/2 91/1/2 97/1/2
f 98/1/2 99/1/2 102/1/2
f 100/1/2 101/1/2 103/1/2
f 104/4/2 105/4/2 106/4/2
f 106/4/2 105/4/2 107/4/2
f 98/1/2 102/1/2 110/1/2
f 102/1/2 103/1/2 110/1/2
f 103/1/2 101/1/2 111/1/2
f 110/1/2 103/1/2 111/1/2
f 108/1/2 109/1/2 112/1/2
f 112/1/2 109/1/2 113/1/2
f 108/1/2 112/1/2 114/1/2
f 112/3/2 113/3/2 114/3/2
f 113/1/2 109/1/2 115/1/2
f 114/3/2 113/3/2 115/3/2
f 108/1/2 114/1/2 116/1/2
f 114/1/2 115/1/2 116/1/2
f 115/1/2 109/1/2 117/1/2
f 116/1/2 115/1/2 117/1/2
f 117/1/2 109/1/2 118/1/2
f 117/4/2 118/4/2 119/4/2
f 119/4/2 118/4/2 120/4/2
f 121/4/2 122/4/2 123/4/2
f 123/4/2 122/4/2 124/4/2
f 124/4/2 122/4/2 125/4/2
f 125/4/2 122/4/2 126/4/2
f 129/1/3 128/1/3 127/1/3
f 130/1/3 128/1/3 129/1/3
f 135/4/3 132/4/3 131/4/3
f 136/4/3 132/4/3 135/4/3
f 137/1/3 134/1/3 133/1/3
f 138/1/3 134/1/3 137/1/3
f 141/1/3 137/1/3 133/1/3
f 142/1/3 134/1/3 138/1/3
f 143/4/3 140/4/3 139/4/3
f 144/4/3 140/4/3 143/4/3
f 145/1/3 141/1/3 133/1/3
f 145/1/3 142/1/3 141/1/3
f 146/1/3 134/1/3 142/1/3
f 146/1/3 142/1/3 145/1/3
f 150/1/3 148/1/3 147/1/3
f 150/1/3 149/1/3 148/1/3
f 151/1/3 149/1/3 150/1/3
f 152/1/3 149/1/3 151/1/3
f 157/4/3 154/4/3 153/4/3
f 158/4/3 154/4/3 157/4/3
f 159/1/3 156/1/3 155/1/3
f 160/1/3 156/1/3 159/1/3
f 163/4/3 162/4/3 161/4/3
f 164/4/3 162/4/3 163/4/3
f 167/4/3 166/4/3 165/4/3
f 168/4/3 166/4/3 167/4/3
f 171/4/3 170/4/3 169/4/3
f 172/4/3 170/4/3 171/4/3
f 175/1/3 174/1/3 173/1/3
f 176/1/3 174/1/3 175/1/3
f 177/1/3 175/1/3 173/1/3
f 178/1/3 174/1/3 176/1/3
f 179/1/3 177/1/3 173/1/3
f 179/1/3 178/1/3 177/1/3
f 180/1/3 174/1/3 178/1/3
f 180/1/3 178/1/3 179/1/3
f 183/4/3 182/4/3 181/4/3
f 184/4/3 182/4/3 183/4/3
f 187/4/3 186/4/3 185/4/3
f 188/4/3 186/4/3 187/4/3
f 191/4/3 190/4/3 189/4/3
f 192/4/3 190/4/3 191/4/3
f 193/4/4 194/4/4 195/4/4
f 195/4/4 194/4/4 196/4/4
f 196/1/4 197/1/4 199/1/4
f 199/1/4 197/1/4 200/1/4
f 198/4/4 199/4/4 201/4/4
f 201/4/4 199/4/4 202/4/4
f 203/1/4 204/1/4 206/1/4
f 206/1/4 204/1/4 207/1/4
f 204/4/4 205/4/4 208/4/4
f 207/1/4 204/1/4 208/1/4
f 208/4/4 205/4/4 209/4/4
f 206/2/4 207/2/4 210/2/4
f 207/1/4 208/1/4 211/1/4
f 210/2/4 207/2/4 211/2/4
f 211/1/4 208/1/4 212/1/4
f 210/1/4 211/1/4 214/1/4
f 211/1/4 212/1/4 214/1/4
f 212/4/4 213/4/4 215/4/4
f 214/1/4 212/1/4 215/1/4
f 215/4/4 213/4/4 216/4/4
f 217/4/4 218/4/4 219/4/4
f 219/4/4 218/4/4 220/4/4
f 220/4/4 218/4/4 221/4/4
f 222/4/4 223/4/4 225/4/4
f 223/4/4 224/4/4 225/4/4
f 225/4/4 224/4/4 226/4/4
f 227/1/4 228/1/4 229/1/4
f 229/1/4 228/1/4 230/1/4
f 227/1/4 229/1/4 231/1/4
f 230/1/4 228/1/4 232/1/4
f 227/1/4 231/1/4 233/1/4
f 231/1/4 232/1/4 233/1/4
f 232/1/4 228/1/4 234/1/4
f 233/1/4 232/1/4 234/1/4
f 235/4/4 236/4/4 237/4/4
f 237/4/4 236/4/4 238/4/4
f 239/4/4 240/4/4 241/4/4
f 241/4/4 240/4/4 242/4/4
f 247/4/5 244/4/5 243/4/5
f 248/4/5 244/4/5 247/4/5
f 249/4/5 246/4/5 245/4/5
f 250/4/5 246/4/5 249/4/5
f 253/1/5 252/1/5 251/1/5
f 254/1/5 252/1/5 253/1/5
f 255/2/5 254/2/5 253/2/5
f 256/2/5 254/2/5 255/2/5
f 257/1/5 256/1/5 255/1/5
f 258/1/5 256/1/5 257/1/5
f 261/1/5 260/1/5 259/1/5
f 262/1/5 260/1/5 261/1/5
f 267/4/5 264/4/5 263/4/5
f 268/4/5 266/4/5 265/4/5
f 269/4/5 267/4/5 263/4/5
f 270/1/5 268/1/5 267/1/5
f 270/4/5 267/4/5 269/4/5
f 271/4/5 266/4/5 268/4/5
f 271/1/5 268/1/5 270/1/5
f 272/4/5 266/4/5 271/4/5
f 275/4/5 274/4/5 273/4/5
f 276/4/5 274/4/5 275/4/5
f 279/1/5 278/1/5 277/1/5
f 280/1/5 278/1/5 279/1/5
f 281/1/5 279/1/5 277/1/5
f 282/1/5 278/1/5 280/1/5
f 283/1/5 281/1/5 277/1/5
f 284/2/5 282/2/5 281/2/5
f 284/1/5 281/1/5 283/1/5
f 285/1/5 278/1/5 282/1/5
f 285/2/5 282/2/5 284/2/5
f 286/1/5 278/1/5 285/1/5
f 289/1/5 288/1/5 287/1/5
f 290/1/5 288/1/5 289/1/5
f 293/4/5 292/4/5 291/4/5
f 294/4/5 292/4/5 293/4/5
f 295/4/6 296/4/6 299/4/6
f 297/4/6 298/4/6 300/4/6
f 295/4/6 299/4/6 301/4/6
f 301/4/6 299/4/6 302/4/6
f 300/4/6 298/4/6 303/4/6
f 303/4/6 298/4/6 304/4/6
f 305/4/6 306/4/6 309/4/6
f 309/4/6 306/4/6 310/4/6
f 307/4/6 308/4/6 311/4/6
f 311/4/6 308/4/6 312/4/6
f 313/4/6 314/4/6 317/4/6
f 315/4/6 316/4/6 318/4/6
f 313/4/6 317/4/6 319/4/6
f 319/4/6 317/4/6 320/4/6
f 318/4/6 316/4/6 321/4/6
f 321/4/6 316/4/6 322/4/6
f 320/1/6 321/1/6 323/1/6
f 323/1/6 321/1/6 324/1/6
f 325/4/6 326/4/6 327/4/6
f 327/4/6 326/4/6 328/4/6
f 329/1/6 330/1/6 331/1/6
f 331/1/6 330/1/6 332/1/6
f 333/4/6 334/4/6 335/4/6
f 335/4/6 334/4/6 336/4/6
f 337/1/6 338/1/6 339/1/6
f 339/1/6 338/1/6 340/1/6
f 341/1/6 342/1/6 343/1/6
f 343/1/6 342/1/6 344/1/6
f 344/1/6 342/1/6 345/1/6
f 345/1/6 342/1/6 346/1/6
f 344/1/6 345/1/6 347/1/6
f 347/1/6 345/1/6 348/1/6
f 349/4/6 350/4/6 353/4/6
f 353/4/6 350/4/6 354/4/6
f 351/4/6 352/4/6 355/4/6
f 355/4/6 352/4/6 356/4/6
